<svg width="43" height="33" viewBox="0 0 43 33" fill="none" xmlns="http://www.w3.org/2000/svg">
<path fill-rule="evenodd" clip-rule="evenodd" d="M32.8824 18.2948C34.942 17.2822 36.7253 15.5942 38.2141 13.7787C39.7163 11.9468 41.0086 9.87379 42.057 7.95404C42.3949 7.33535 42.7097 6.72852 43 6.14575V27C43 30.3137 40.3137 33 37 33H6C4.80932 33 3.69964 32.6532 2.76649 32.055C2.80463 31.9868 2.84382 31.9171 2.88403 31.8459C3.59637 30.5846 4.62511 28.8746 5.89097 27.0753C8.49589 23.3729 11.8314 19.6949 15.2302 18.3619C17.7302 17.3815 19.9485 17.9246 22.8495 18.635L22.8603 18.6376C25.6484 19.3203 29.099 20.155 32.8824 18.2948ZM0.193292 28.5165C0.0671429 28.0321 0 27.5239 0 27V6C0 2.68629 2.68629 0 6 0H37C38.4442 0 39.7691 0.510214 40.8045 1.36022C40.2764 2.6001 39.5102 4.2722 38.5465 6.03679C37.5705 7.82383 36.4131 9.66676 35.1211 11.2423C33.8157 12.8341 32.4603 14.045 31.1176 14.7052C28.768 15.8604 26.6498 15.4474 23.8117 14.7524C23.6976 14.7245 23.5821 14.696 23.4654 14.6672C20.8006 14.0101 17.4671 13.188 13.7698 14.6381C9.1826 16.4371 5.26812 21.0091 2.61953 24.7737C1.67621 26.1145 0.858769 27.404 0.193292 28.5165Z" fill="black"/>
</svg>
