<svg width="119" height="119" viewBox="0 0 119 119" fill="none" xmlns="http://www.w3.org/2000/svg">
<g clip-path="url(#clip0_47_419)">
<path d="M14.875 14.875H29.75V29.75H14.875V14.875Z" fill="#F5F8FA"/>
<path d="M44.625 0V44.625H0V0H44.625ZM37.1875 7.4375H7.4375V37.1875H37.1875V7.4375ZM29.75 89.25H14.875V104.125H29.75V89.25Z" fill="#F5F8FA"/>
<path d="M44.625 74.375V119H0V74.375H44.625ZM7.4375 81.8125V111.562H37.1875V81.8125H7.4375ZM89.25 14.875H104.125V29.75H89.25V14.875Z" fill="#F5F8FA"/>
<path d="M74.375 0V44.625H119V0H74.375ZM111.562 7.4375V37.1875H81.8125V7.4375H111.562ZM59.5 7.4375V0H66.9375V14.875H59.5V29.75H52.0625V7.4375H59.5ZM59.5 44.625V29.75H66.9375V44.625H59.5ZM44.625 59.5V52.0625H52.0625V44.625H59.5V59.5H66.9375V52.0625H104.125V59.5H74.375V66.9375H52.0625V59.5H44.625ZM44.625 59.5V66.9375H14.875V59.5H7.4375V66.9375H0V52.0625H22.3125V59.5H44.625ZM119 66.9375H111.562V52.0625H119V66.9375ZM111.562 66.9375H104.125V81.8125H119V74.375H111.562V66.9375ZM81.8125 66.9375H96.6875V74.375H89.25V81.8125H81.8125V66.9375ZM96.6875 89.25V81.8125H89.25V89.25H81.8125V96.6875H66.9375V104.125H89.25V89.25H96.6875ZM96.6875 89.25H119V96.6875H104.125V104.125H96.6875V89.25ZM66.9375 81.8125V89.25H74.375V74.375H52.0625V81.8125H66.9375Z" fill="#F5F8FA"/>
<path d="M52.0625 89.25H59.5V111.562H89.25V119H52.0625V89.25ZM119 104.125V119H96.6875V111.562H111.562V104.125H119Z" fill="#F5F8FA"/>
</g>
<defs>
<clipPath id="clip0_47_419">
<rect width="119" height="119" rx="14" fill="white"/>
</clipPath>
</defs>
</svg>
